<svg 
  xmlns="http://www.w3.org/2000/svg" 
  viewBox="0 0 50 50" 
  xml:space="preserve" 
  enable-background="new 0 0 50 50"
>
  <path d="M47.058 37.416 29.777 47.459c-.367.213-.957.213-1.323.003L2.195 32.3c-.366-.21-.366-.553 0-.767L19.477 21.49c.363-.21.953-.21 1.319 0l26.259 15.16c.366.213.37.556.003.766z" fill="#333333"></path>
  <path d="M26.265 38.085c.208.12.207.316 0 .436l-4.296 2.497a.832.832 0 0 1-.754.001l-8.465-4.888c-.208-.12-.207-.316 0-.436l4.296-2.497a.832.832 0 0 1 .753 0l8.466 4.887z" fill="#1a1a1a"></path>
  <path d="m47.33 37.036-.004 1.384c0 .135-.092.274-.271.38L29.773 48.841c-.366.21-.956.21-1.322 0L2.192 33.683c-.183-.105-.275-.244-.275-.386l.004-1.38c0 .139.091.278.274.383l26.259 15.162c.366.21.956.21 1.323-.003l17.28-10.043c.184-.105.272-.24.272-.38zM46.727 16.434c.366.212.662.724.66 1.144l-.046 18.474c-.001.418-.299.59-.665.379l-25.88-14.94c-.366-.212-.662-.726-.66-1.144l.046-18.474c.002-.42.3-.59.665-.38l25.88 14.941z" fill="#1a1a1a"></path>
  <path d="M33.762 9.743c.317.183.569.623.568.984-.001.36-.254.509-.572.326-.314-.182-.566-.622-.565-.982.001-.361.255-.51.569-.328z" fill="#006fc4"></path>
  <path d="m48.083 17.175-.048 18.474c0 .207-.074.356-.193.424l-.694.403c.118-.067.193-.217.193-.424l.048-18.473c0-.42-.295-.932-.662-1.146L20.847 1.494c-.183-.105-.35-.115-.471-.047l.694-.404c.118-.068.288-.058.471.047l25.88 14.943c.367.21.662.722.662 1.142z" fill="#333333"></path>
  <path d="M46.454 19.152 46.409 35.2l-25.34-14.628.046-16.047z" fill="#ffffff"></path>
  <path d="m43.251 25.13-.002.955-12.111-6.992.003-.956z" fill="#999999"></path>
  <g enable-background="new">
    <path d="m43.24 29.333-.003.956-12.111-6.992.003-.956zM43.245 27.239l-.002.94-12.111-6.991.003-.941z" fill="#999999"></path>
    <path d="m43.27 19.141-.01 4.007-19.93-11.506.011-4.007z" fill="#006fc4"></path>
  </g>
  <path d="m29.754 17.337-.015 5.16-6.431-3.714.014-5.16z" fill="#666666"></path>
  <path d="m37.705 25.606 2.757 1.875-.678.386.983 1.702-1.164.657-.983-1.702-.678.386zM30.002 32.254l-1.481.86-1.69-.976 1.48-.86zM28.134 33.339l-1.48.86-1.691-.975 1.48-.86z" fill="#006fc4"></path>
  <g enable-background="new">
    <path d="m22.389 23.53-1.486.864-1.69-.976 1.486-.863zM24.659 24.84l-1.486.864-1.69-.976 1.485-.863zM21.364 25.102l-1.486.864-2.533-1.462 1.486-.864zM26.928 26.151l-1.485.864-1.69-.976 1.485-.863zM23.633 26.413l-1.485.863-1.69-.976 1.485-.863zM16.785 26.787l-1.48.86-1.69-.975 1.48-.86zM20.923 27.012l-1.48.86-3.96-2.286 1.48-.86zM29.198 27.462l-1.486.863-1.69-.976 1.486-.863zM25.903 27.723l-1.486.864-1.69-.976 1.486-.863zM19.055 28.097l-1.48.86-1.69-.975 1.48-.86zM23.193 28.322l-1.481.86-1.69-.975 1.48-.86zM31.468 28.772l-1.486.864-1.69-.976 1.486-.864zM28.173 29.034l-1.486.863-1.69-.976 1.486-.863zM17.187 29.183l-1.48.86-3.96-2.286 1.48-.86zM21.325 29.408l-1.481.86-1.69-.976 1.48-.86zM25.462 29.633l-1.48.86-1.69-.976 1.48-.86zM33.737 30.083l-1.485.863-1.69-.976 1.485-.863zM30.442 30.344l-1.485.863-1.685-.973 1.485-.863zM23.594 30.718l-1.48.86-1.69-.975 1.48-.86zM27.732 30.943l-1.48.86-1.69-.975 1.48-.86zM25.864 32.029l-1.48.86-1.69-.976 1.48-.86zM26.363 34.48l-1.48.861-8.597-4.963 1.48-.86z" fill="#006fc4"></path>
  </g>
  <path d="m33.075 38.356-1.48.86-1.69-.976 1.48-.86zM30.805 37.045l-1.48.86-1.69-.975 1.48-.86zM28.536 35.735l-1.481.86-1.69-.975 1.48-.86zM30.404 34.65l-1.481.86-1.69-.976 1.48-.86zM32.271 33.564l-1.48.86-1.69-.975 1.48-.86zM34.987 32.968l-1.486.863-1.69-.976 1.486-.863zM36.007 31.393l-1.485.863-1.69-.975 1.485-.864zM42.816 35.324l-1.485.864-1.686-.973 1.486-.864zM43.223 37.723l-1.486.863-3.117-1.8 1.486-.863zM34.943 37.27l-1.48.86-1.69-.975 1.48-.86zM41.355 38.808l-1.48.861-3.96-2.286 1.48-.86zM36.81 36.185l-1.48.86-1.69-.975 1.48-.861zM39.526 35.589l-1.485.863-1.69-.976 1.485-.863zM40.547 34.014l-1.486.863-1.69-.976 1.485-.863zM34.541 34.874l-1.48.86-1.69-.975 1.48-.86zM37.256 34.278l-1.485.864-1.69-.976 1.485-.864zM38.277 32.703l-1.486.864-1.69-.976 1.486-.863zM45.09 36.638l-1.485.863-1.69-.976 1.486-.863zM32.717 31.657l-1.486.864-1.69-.976 1.486-.863zM35.345 39.666l-1.48.86-1.686-.972 1.48-.86zM39.487 39.894 36.14 41.84l-1.69-.976 3.348-1.946z" fill="#006fc4"></path>
</svg>